<svg id="Слой_1" data-name="Слой 1" xmlns="http://www.w3.org/2000/svg" viewBox="0 0 18 28"><defs><style>.cls-1{fill:#efefef;}</style></defs><title>logoo</title><polygon class="cls-1" points="11 13 11 17 12 17 12 18 13 18 13 19 14 19 14 20 15 20 15 16 16 16 16 15 17 15 17 14 18 14 18 23 17 23 17 24 16 24 16 25 15 25 15 26 14 26 14 27 13 27 13 28 5 28 5 27 4 27 4 26 3 26 3 25 2 25 2 24 1 24 1 23 0 23 0 15 1 15 1 14 2 14 2 13 3 13 3 12 3 8 4 8 4 7 5 7 5 6 6 6 6 5 7 5 7 10 8 10 8 11 9 11 9 12 10 12 10 13 11 13"/><polygon class="cls-1" points="11 0 12 0 12 1 13 1 13 2 14 2 14 3 15 3 15 16 14 16 14 15 13 15 13 14 12 14 12 13 11 13 11 0"/></svg>